<?xml version="1.0" encoding="UTF-8" standalone="no"?>
<svg
   width="170"
   height="170"
   viewBox="0 0 170 170"
   fill="none"
   version="1.1"
   id="svg6"
   xmlns="http://www.w3.org/2000/svg"
   xmlns:svg="http://www.w3.org/2000/svg">
  <defs
     id="defs10" />
  <path
     id="path2"
     style="color:#000000;clip-rule:evenodd;fill:#000000;fill-rule:evenodd;-inkscape-stroke:none"
     d="m 135,0 c -19.33,0 -35,15.67 -35,35 0,4.261289 0.7638,8.34421 2.1582,12.121094 L 3.6328125,145.64648 c -3.905273,3.905 -3.905273,10.23758 0,14.14258 l 7.0703125,7.07032 c 3.9052,3.906 10.237278,3.90599 14.142578,0 L 123.61133,68.095703 C 127.18255,69.324402 131.01167,70 135,70 154.33,70 170,54.33 170,35 170,15.67 154.33,0 135,0 Z m 0,10 c 13.807,0 25,11.1929 25,25 0,13.8071 -11.193,25 -25,25 -13.807,0 -25,-11.1929 -25,-25 0,-13.8071 11.193,-25 25,-25 z m -27.98047,46.025391 c 1.98093,2.63203 4.32297,4.976202 6.95508,6.957031 -0.15564,0.215887 -0.31547,0.430739 -0.50977,0.625 L 20.607422,156.46484 c -1.9527,1.953 -5.119566,1.953 -7.072266,0 -1.9526,-1.953 -1.9526,-5.11731 0,-7.07031 L 106.39453,56.535156 c 0.19459,-0.19455 0.40874,-0.353983 0.625,-0.509765 z" />
</svg>
